# xmcd
#
# Track frame offsets:
#	150
#	15874
#	41017
#	56980
#	80038
#	96814
#	119980
#	145853
#	164659
#	180297
#	193256
#
# Disc length: 2877 seconds
#
# Revision: 0
# Processed by: cddbd v1.5.2PL0 Copyright (c) Steve Scherf et al.
# Submitted via: dBpowerAMP V4.0
#
DISCID=9c0b3b0b
DTITLE=Shakura S'Aida - Blueprint
DYEAR=2006
DGENRE=Blues
TTITLE0=No More Trouble Out of Me
TTITLE1=He Doesn't Care (About My Broken Heart)
TTITLE2=One Monkey Don't Stop the Show
TTITLE3=Getting Along Alright
TTITLE4=Stop It Baby
TTITLE5=Rain Down Rain
TTITLE6=Las Vegas Blues
TTITLE7=Me and My Chauffeur Blues
TTITLE8=Big City Lights (Have You Seen My Baby)
TTITLE9=I'm Living With the Blues
TTITLE10=Gotta Live
EXTD=
EXTT0=
EXTT1=
EXTT2=
EXTT3=
EXTT4=
EXTT5=
EXTT6=
EXTT7=
EXTT8=
EXTT9=
EXTT10=
PLAYORDER=
